<?xml version="1.0" encoding="utf-8"?>
<!-- Generator: Adobe Illustrator 24.1.2, SVG Export Plug-In . SVG Version: 6.00 Build 0)  -->
<svg version="1.1" baseProfile="basic" id="Calque_1"
	 xmlns="http://www.w3.org/2000/svg" xmlns:xlink="http://www.w3.org/1999/xlink" x="0px" y="0px" viewBox="0 0 168.208 63.73"
	 xml:space="preserve">
<g>
	<g>
		<path d="M35.051,45.484l-1.513-2.17c-0.095,0.01-0.191,0.01-0.286,0.01h-1.672v2.16h-1.376v-7.41h3.049
			c1.948,0,3.154,0.996,3.154,2.636c0,1.122-0.571,1.948-1.577,2.339l1.704,2.435H35.051z M33.189,39.239h-1.609v2.953h1.609
			c1.206,0,1.831-0.55,1.831-1.482C35.02,39.779,34.395,39.239,33.189,39.239z"/>
		<path d="M37.782,41.78c0-2.191,1.694-3.811,3.991-3.811c2.296,0,3.99,1.609,3.99,3.811s-1.694,3.81-3.99,3.81
			C39.476,45.59,37.782,43.971,37.782,41.78z M44.376,41.78c0-1.514-1.111-2.604-2.603-2.604c-1.493,0-2.604,1.09-2.604,2.604
			c0,1.513,1.111,2.603,2.604,2.603C43.265,44.383,44.376,43.293,44.376,41.78z"/>
		<path d="M54.179,43.474c0,1.27-0.996,2.011-2.901,2.011h-3.684v-7.41h3.472c1.778,0,2.73,0.751,2.73,1.927
			c0,0.763-0.381,1.323-0.953,1.63C53.639,41.886,54.179,42.51,54.179,43.474z M48.971,39.154v2.043h1.948
			c0.953,0,1.492-0.339,1.492-1.016c0-0.688-0.54-1.027-1.492-1.027H48.971z M52.792,43.336c0-0.741-0.561-1.069-1.598-1.069h-2.223
			v2.138h2.223C52.231,44.405,52.792,44.076,52.792,43.336z"/>
		<path d="M55.491,41.78c0-2.191,1.694-3.811,3.991-3.811c2.296,0,3.99,1.609,3.99,3.811s-1.694,3.81-3.99,3.81
			C57.184,45.59,55.491,43.971,55.491,41.78z M62.085,41.78c0-1.514-1.111-2.604-2.603-2.604c-1.492,0-2.604,1.09-2.604,2.604
			c0,1.513,1.112,2.603,2.604,2.603C60.974,44.383,62.085,43.293,62.085,41.78z"/>
		<path d="M66.7,39.239h-2.456v-1.165h6.288v1.165h-2.456v6.245H66.7V39.239z"/>
		<path d="M71.939,38.075h1.376v7.41h-1.376V38.075z"/>
		<path d="M83.509,46.226c-0.487,0.572-1.154,0.879-1.937,0.879c-1.006,0-1.757-0.392-2.847-1.535
			c-2.074-0.18-3.567-1.737-3.567-3.79c0-2.191,1.694-3.811,3.991-3.811c2.296,0,3.99,1.609,3.99,3.811
			c0,1.788-1.122,3.186-2.773,3.651c0.423,0.456,0.804,0.625,1.238,0.625c0.487,0,0.91-0.201,1.271-0.593L83.509,46.226z
			 M79.148,44.383c1.492,0,2.603-1.09,2.603-2.603c0-1.514-1.111-2.604-2.603-2.604s-2.604,1.09-2.604,2.604
			C76.544,43.293,77.656,44.383,79.148,44.383z"/>
		<path d="M84.906,42.256v-4.182h1.376v4.128c0,1.524,0.688,2.18,1.884,2.18c1.196,0,1.873-0.656,1.873-2.18v-4.128h1.355v4.182
			c0,2.159-1.217,3.334-3.239,3.334C86.122,45.59,84.906,44.415,84.906,42.256z"/>
		<path d="M99.247,44.331v1.154H93.69v-7.41H99.1v1.154h-4.033v1.927h3.578v1.133h-3.578v2.043H99.247z"/>
		<path d="M110.002,45.601l-0.931-0.899c-0.667,0.572-1.514,0.889-2.488,0.889c-1.566,0-2.699-0.815-2.699-1.979
			c0-0.922,0.508-1.567,1.714-2.245c-0.603-0.603-0.825-1.09-0.825-1.63c0-1.037,0.847-1.746,2.148-1.746
			c1.197,0,1.98,0.624,1.98,1.63c0,0.762-0.444,1.313-1.514,1.915l1.598,1.524c0.18-0.349,0.318-0.772,0.413-1.248l1.069,0.349
			c-0.138,0.646-0.359,1.217-0.666,1.694l0.931,0.889L110.002,45.601z M108.287,43.95l-1.958-1.874
			c-0.857,0.476-1.154,0.868-1.154,1.398c0,0.614,0.592,1.037,1.503,1.037C107.292,44.51,107.832,44.32,108.287,43.95z
			 M105.98,39.716c0,0.328,0.138,0.572,0.666,1.1c0.858-0.466,1.133-0.773,1.133-1.175c0-0.423-0.307-0.708-0.858-0.708
			C106.329,38.933,105.98,39.26,105.98,39.716z"/>
		<path d="M30.203,50.288h1.376v7.41h-1.376V50.288z"/>
		<path d="M40.534,50.288v7.41h-1.133l-4.085-5.017v5.017H33.95v-7.41h1.133l4.085,5.017v-5.017H40.534z"/>
		<path d="M47.954,53.908h1.302v2.953c-0.773,0.625-1.852,0.942-2.9,0.942c-2.297,0-3.991-1.598-3.991-3.81
			c0-2.213,1.694-3.811,4.011-3.811c1.239,0,2.276,0.413,2.975,1.207l-0.868,0.847c-0.582-0.582-1.249-0.847-2.043-0.847
			c-1.578,0-2.688,1.069-2.688,2.604c0,1.503,1.111,2.603,2.678,2.603c0.529,0,1.048-0.106,1.524-0.381V53.908z"/>
		<path d="M56.993,56.544v1.154h-5.557v-7.41h5.409v1.154h-4.033v1.927h3.578v1.133h-3.578v2.043H56.993z M54.411,49.684h-1.143
			l1.43-1.45h1.556L54.411,49.684z"/>
		<path d="M65.483,50.288v7.41H64.35l-4.085-5.017v5.017h-1.366v-7.41h1.133l4.085,5.017v-5.017H65.483z"/>
		<path d="M67.843,50.288h1.376v7.41h-1.376V50.288z"/>
		<path d="M77.147,56.544v1.154H71.59v-7.41h5.409v1.154h-4.033v1.927h3.578v1.133h-3.578v2.043H77.147z"/>
		<path d="M83.899,57.698l-1.513-2.17c-0.095,0.01-0.191,0.01-0.286,0.01h-1.672v2.16h-1.376v-7.41H82.1
			c1.948,0,3.154,0.996,3.154,2.636c0,1.122-0.571,1.948-1.577,2.339l1.704,2.435H83.899z M82.037,51.453h-1.609v2.953h1.609
			c1.206,0,1.831-0.55,1.831-1.482C83.868,51.993,83.243,51.453,82.037,51.453z"/>
		<path d="M87.159,50.288h1.376v7.41h-1.376V50.288z"/>
		<path d="M96.463,56.544v1.154h-5.557v-7.41h5.409v1.154h-4.033v1.927h3.578v1.133h-3.578v2.043H96.463z"/>
		<path d="M101.036,56.914l0.476-1.069c0.592,0.476,1.535,0.815,2.445,0.815c1.154,0,1.641-0.413,1.641-0.963
			c0-1.598-4.403-0.55-4.403-3.303c0-1.196,0.953-2.212,2.985-2.212c0.889,0,1.821,0.233,2.466,0.656l-0.434,1.069
			c-0.667-0.392-1.398-0.582-2.043-0.582c-1.143,0-1.609,0.444-1.609,1.006c0,1.577,4.393,0.55,4.393,3.27
			c0,1.186-0.964,2.202-2.996,2.202C102.803,57.803,101.65,57.444,101.036,56.914z"/>
		<path d="M111.726,55.083v2.614h-1.376v-2.594l-2.911-4.816h1.472l2.17,3.61l2.191-3.61h1.355L111.726,55.083z"/>
		<path d="M115.113,56.914l0.476-1.069c0.593,0.476,1.535,0.815,2.445,0.815c1.154,0,1.641-0.413,1.641-0.963
			c0-1.598-4.403-0.55-4.403-3.303c0-1.196,0.953-2.212,2.985-2.212c0.889,0,1.82,0.233,2.466,0.656l-0.434,1.069
			c-0.667-0.392-1.397-0.582-2.043-0.582c-1.143,0-1.609,0.444-1.609,1.006c0,1.577,4.393,0.55,4.393,3.27
			c0,1.186-0.964,2.202-2.996,2.202C116.881,57.803,115.727,57.444,115.113,56.914z"/>
		<path d="M124.164,51.453h-2.456v-1.165h6.288v1.165h-2.456v6.245h-1.376V51.453z"/>
		<path d="M134.96,56.544v1.154h-5.557v-7.41h5.409v1.154h-4.033v1.927h3.578v1.133h-3.578v2.043H134.96z M131.869,49.684
			l-1.842-1.45h1.556l1.429,1.45H131.869z"/>
		<path d="M143.671,57.698l-0.01-4.912l-2.435,4.065h-0.614l-2.435-4.001v4.848h-1.313v-7.41h1.133l2.943,4.912l2.89-4.912h1.132
			l0.011,7.41H143.671z"/>
		<path d="M152.901,56.544v1.154h-5.557v-7.41h5.409v1.154h-4.033v1.927h3.578v1.133h-3.578v2.043H152.901z"/>
		<path d="M154.182,56.914l0.476-1.069c0.592,0.476,1.535,0.815,2.445,0.815c1.154,0,1.641-0.413,1.641-0.963
			c0-1.598-4.403-0.55-4.403-3.303c0-1.196,0.953-2.212,2.985-2.212c0.889,0,1.821,0.233,2.467,0.656l-0.434,1.069
			c-0.667-0.392-1.398-0.582-2.043-0.582c-1.143,0-1.609,0.444-1.609,1.006c0,1.577,4.393,0.55,4.393,3.27
			c0,1.186-0.964,2.202-2.996,2.202C155.95,57.803,154.796,57.444,154.182,56.914z"/>
	</g>
	<path fill="#6D7E9A" d="M67.4,30.254c6.42,0,11.624-5.14,11.624-11.481S73.82,7.291,67.4,7.291c-6.421,0-11.623,5.14-11.623,11.482
		S60.979,30.254,67.4,30.254z M67.399,12.757c3.363,0,6.089,2.693,6.089,6.014c0,3.322-2.726,6.015-6.089,6.015
		s-6.089-2.693-6.089-6.015C61.31,15.45,64.037,12.757,67.399,12.757z"/>
	<path fill="#6D7E9A" d="M30.164,30.342h5.535l-0.001-11.221c0-3.408,2.726-6.171,6.089-6.171c3.363,0,6.089,2.763,6.089,6.171
		v11.221h5.535l0.002-11.22c0-6.507-5.204-11.782-11.624-11.782c-6.42,0-11.624,5.275-11.624,11.782V30.342z"/>
	<path fill="#6D7E9A" d="M17.616,19.246c0-0.773-0.146-1.51-0.411-2.183l-3.747-9.772H7.501l6.63,17.287
		C16.19,23.739,17.616,21.687,17.616,19.246z"/>
	<polygon fill="#6D7E9A" points="92.868,30.341 101.71,7.291 95.752,7.291 86.911,30.341 	"/>
	<path fill="#6D7E9A" d="M88.186,19.245c0-0.772-0.144-1.51-0.41-2.183l-3.746-9.772h-5.959l6.632,17.287
		C86.76,23.739,88.186,21.687,88.186,19.245z"/>
	<polygon fill="#6D7E9A" points="25.178,7.291 10.587,45.331 16.545,45.331 31.136,7.291 	"/>
</g>
</svg>
